# xmcd
#
# Track frame offsets:
#        150
#        15600
#        40937
#        57727
#        86340
#        99327
#        121170
#        146585
#        164347
#        195000
#        218857
#        241775
#        261112
#        300160
#
# Disc length: 4264 seconds
#
# Revision: 2
# Processed by: cddbd v1.5.1PL0 Copyright (c) Steve Scherf et al.
# Submitted via: ExactAudioCopy v0.95a5
#
DISCID=ab10a60e
DTITLE=Buddy Guy - As Good As It Gets
DYEAR=1998
DGENRE=
TTITLE0=Poison Ivy
TTITLE1=One Room Country Shack
TTITLE2=The Things I Used To Do
TTITLE3=(You Give Me) Fever
TTITLE4=24 Hours Of The Day
TTITLE5=You Were Wrong
TTITLE6=Sweet Little Angel
TTITLE7=You Got A Hole In Your Soul
TTITLE8=Slow Blues (Instrumental)
TTITLE9=The Dream
TTITLE10=I'm Ready
TTITLE11=My Time After Awhile
TTITLE12=Come See About Me
TTITLE13=Stormy Monday Blues
EXTD=
EXTT0=
EXTT1=
EXTT2=
EXTT3=
EXTT4=
EXTT5=
EXTT6=
EXTT7=
EXTT8=
EXTT9=
EXTT10=
EXTT11=
EXTT12=
EXTT13=
PLAYORDER=
